<svg class="h-6" xmlns="http://www.w3.org/2000/svg" xml:space="preserve" fill-rule="evenodd" stroke-linejoin="round" stroke-miterlimit="2" clip-rule="evenodd" viewBox="0 0 11241 2073">
                                <path fill="#4f46e5" fill-rule="nonzero" d="M351.517 1861.085c-10.242-23.454-17.95-48.367-22.762-74.446-12.1-65.592-30.783-157.412-56.008-275.467 0 0-190.696-878.596-246.7-1130.592-5.658-25.45-12.621-55.954-20.138-88.471-16.008-70.4.904-144.271 45.938-200.675C96.897 35.009 165.18 2.18 237.385 2.213h8.108c71.2 0 151.475-.642 240.817-1.946 39.008-.575 72.604 27.396 79.133 65.867 22.067 130.642 40.017 228.908 53.887 294.792l40.263 193.142-308.092 1307.033.017-.017-.001.001ZM867.334 539.506l81.283-353.925C973.53 77.127 1070.459.564 1181.725 1.431c58.975.504 112.588.763 160.833.763 85.071 0 178.596-.679 280.575-2.033 39.567-.521 73.421 28.246 79.271 67.379l85.121 568.821 131.683 811.25 59.029-222.483c11.092-38.35 22.708-77.187 34.808-116.546 12.1-39.358 37.325-117.55 75.675-234.6l184.654-581.2 35.867-122.05C2339.033 69.378 2432.229-.085 2537.87.349c46.042.208 87.533.313 124.479.313 58.975 0 122.5-.225 190.608-.658a79.087 79.087 0 0 1 64.529 32.658 79.061 79.061 0 0 1 10.992 71.475L2376.29 1757.833l-76.512 250.504c-10.262 33.592-41.458 56.408-76.596 55.971-126.842-1.508-239.271-2.275-337.275-2.275-60.988 0-125.279.258-192.883.8-116.546.867-216.458-83.038-235.763-197.988l-1.196-7.133-133.196-721.946c-7.067-43.388-13.367-88.038-18.925-133.942-5.554-45.904-13.367-117.292-23.454-214.167l-52.967 234.6a12499.667 12499.667 0 0 1-40.867 158.925l-227.675 825.817c-9.462 34.304-40.658 58.075-76.25 58.075H663.356c-58.004 0-113.092-14.633-161.371-40.675l185.208-785.713 180.104-699.237.033.058.004-.001ZM3366.678 2072.472c-118.733 0-223.767-25.117-317.383-77.633-91.333-50.233-164.4-121.017-216.917-210.067-52.517-89.05-77.633-194.083-77.633-310.533 0-116.45 25.117-221.483 77.633-310.533 50.233-89.05 123.3-159.833 214.633-212.35 91.333-50.233 196.367-75.35 315.1-75.35 118.733 0 223.767 25.117 317.383 75.35 91.333 50.233 164.4 121.017 214.633 212.35 52.517 89.05 77.633 194.083 77.633 310.533 0 116.45-25.117 221.483-77.633 310.533-50.233 89.05-123.3 159.833-214.633 210.067-91.333 50.233-196.367 77.633-312.817 77.633Zm0-328.8c47.95 0 89.05-11.417 123.3-34.25 36.533-22.833 63.933-54.8 84.483-95.9 20.55-41.1 29.683-86.767 29.683-139.283 0-52.517-11.417-100.467-31.967-139.283-20.55-41.1-50.233-73.067-86.767-95.9-36.533-22.833-77.633-34.25-125.583-34.25s-89.05 11.417-125.583 34.25-63.933 54.8-84.483 95.9c-20.55 41.1-31.967 86.767-31.967 139.283 0 52.517 11.417 100.467 31.967 139.283 20.55 41.1 50.233 73.067 86.767 95.9 36.533 22.833 79.917 34.25 127.867 34.25h2.283ZM4143.011 2047.356V903.406h356.2v212.35c47.95-70.783 107.317-125.583 180.383-162.117 73.067-36.533 146.133-54.8 223.767-54.8v347.067c-70.783 0-137 6.85-198.65 22.833-61.65 15.983-111.883 38.817-148.417 70.783-38.817 31.967-57.083 73.067-57.083 121.017v586.817h-356.2ZM5051.778 2045.072V446.739h356.2v840.267l344.783-383.6h420.133l-433.833 493.2 461.233 648.467h-413.283l-274-390.45-105.033 116.45v274h-356.2ZM6373.828 2045.072V446.739h385.883l703.267 974.983V446.739h367.617v1598.333h-367.617l-721.533-1002.383v1002.383h-367.617ZM8645.745 2072.472c-118.733 0-223.767-25.117-312.817-75.35-91.333-50.233-162.117-121.017-214.633-210.067-52.517-89.05-77.633-194.083-77.633-312.817 0-118.733 25.117-221.483 77.633-312.817 52.517-89.05 123.3-159.833 216.917-210.067 91.333-50.233 196.367-75.35 317.383-75.35 109.6 0 207.783 25.117 294.55 77.633 86.767 52.517 155.267 127.867 207.783 230.617 50.233 102.75 75.35 228.333 75.35 381.317h-817.433c6.85 66.217 34.25 118.733 79.917 157.55 45.667 38.817 100.467 59.367 166.683 59.367 57.083 0 102.75-11.417 141.567-38.817 38.817-25.117 66.217-57.083 79.917-95.9l315.1 109.6c-29.683 70.783-73.067 130.15-127.867 178.1-54.8 47.95-118.733 82.2-191.8 105.033-70.783 22.833-148.417 34.25-228.333 34.25l-2.283-2.283Zm-226.05-744.367h436.117c-6.85-45.667-20.55-79.917-43.383-107.317-22.833-27.4-50.233-45.667-79.917-57.083-29.683-11.417-61.65-18.267-91.333-18.267s-59.367 6.85-91.333 18.267c-31.967 11.417-59.367 29.683-84.483 57.083-25.117 27.4-38.817 61.65-45.667 107.317ZM9807.961 2072.472c-75.35 0-143.85-11.417-210.067-31.967-63.933-22.833-121.017-52.517-168.967-93.617-47.95-41.1-82.2-89.05-105.033-148.417l292.267-123.3c20.55 38.817 47.95 68.5 82.2 86.767 34.25 18.267 70.783 27.4 109.6 27.4 36.533 0 66.217-6.85 89.05-18.267 20.55-13.7 31.967-29.683 31.967-54.8 0-25.117-11.417-43.383-31.967-57.083-22.833-13.7-52.517-25.117-93.617-34.25l-100.467-25.117c-105.033-27.4-187.233-73.067-244.317-137-57.083-63.933-86.767-137-86.767-221.483 0-116.45 41.1-207.783 121.017-271.717 79.917-63.933 191.8-95.9 335.65-95.9 79.917 0 152.983 11.417 214.633 31.967 61.65 22.833 114.167 52.517 155.267 91.333 41.1 38.817 73.067 84.483 91.333 134.717l-283.133 116.45c-11.417-29.683-31.967-54.8-66.217-70.783-34.25-15.983-68.5-25.117-107.317-25.117-34.25 0-59.367 6.85-77.633 22.833-18.267 15.983-27.4 34.25-27.4 57.083 0 18.267 11.417 34.25 31.967 47.95 22.833 13.7 54.8 25.117 95.9 36.533l121.017 29.683c73.067 18.267 132.433 45.667 180.383 82.2 47.95 36.533 84.483 79.917 109.6 130.15 25.117 50.233 36.533 102.75 36.533 159.833 0 70.783-20.55 134.717-63.933 187.233-43.383 52.517-100.467 93.617-175.817 121.017-75.35 29.683-159.833 43.383-258.017 43.383l2.283 2.283ZM10963.328 2072.472c-134.717 0-235.183-31.967-301.4-95.9-66.217-63.933-100.467-157.55-100.467-276.283v-495.483h-178.1V905.689h178.1v-356.2h356.2v356.2h260.3v299.117h-260.3v406.433c0 45.667 9.133 79.917 25.117 102.75 15.983 20.55 43.383 31.967 77.633 31.967 13.7 0 29.683-4.567 47.95-11.417 18.267-6.85 34.25-15.983 50.233-27.4l123.3 260.3c-36.533 29.683-79.917 54.8-130.15 75.35-50.233 20.55-100.467 31.967-148.417 31.967v-2.283Z"></path>
                            </svg>